<svg width="683" height="905" viewBox="0 0 683 905" xmlns="http://www.w3.org/2000/svg"><path d="M341.333 304.356v45.51c0 17.067-11.377 34.134-28.444 45.512s-39.822 5.689-56.889 0L28.444 247.467C11.378 236.089 0 219.022 0 201.956c0-17.067 11.378-34.134 22.756-45.512L250.31 8.534c17.067-11.378 39.822-11.378 56.889 0 22.756 5.688 34.133 22.755 34.133 45.51v45.512c187.734 0 341.334 136.533 341.334 307.2 0 34.133-5.69 68.266-17.067 102.4-51.2-119.467-176.356-204.8-324.267-204.8zm0 295.822v-45.511c0-17.067 11.378-34.134 28.445-45.511 17.066-11.378 39.822-5.69 56.889 0l227.555 147.91c17.067 11.378 22.756 28.445 22.756 45.512 0 17.066-11.378 34.133-22.756 45.51L426.667 896c-17.067 11.378-39.823 11.378-56.89 0-17.066-5.689-28.444-22.756-28.444-45.511v-45.511C153.6 804.978 0 668.444 0 497.778c0-34.134 5.689-68.267 17.067-102.4 51.2 119.466 176.355 204.8 324.266 204.8z" fill-rule="nonzero"/></svg>