<svg xmlns="http://www.w3.org/2000/svg" width="1024" height="819" viewBox="0 0 1024 819"><path d="M0 294.675V70.555c0-18.677 6.762-34.778 20.287-48.302C33.81 8.728 49.912 1.644 68.589 1h225.086c18.677 0 39.608 4.83 62.793 14.49 23.185 9.66 41.54 21.253 55.064 34.778l385.45 385.449c12.88 13.525 19.32 29.625 19.32 48.302 0 19.32-6.44 35.743-19.32 49.268L532.286 797.98c-14.169 13.525-30.591 20.287-49.268 20.287-19.32 0-35.422-6.762-48.302-20.287L49.267 412.532c-13.524-13.524-25.116-31.88-34.776-55.064C4.83 334.283 0 313.352 0 294.675zm103.366-120.754c0 19.32 6.762 35.421 20.287 48.302 13.524 12.88 29.947 19.642 49.268 20.286 19.32.644 35.421-6.118 48.302-20.286 12.88-14.169 19.642-30.27 20.286-48.302.644-18.033-6.118-34.456-20.286-49.268-14.169-14.813-30.27-21.253-48.302-19.32-18.033 1.931-34.456 8.371-49.268 19.32-14.813 10.948-21.575 27.37-20.287 49.268zM379.653 1h120.755c18.676 0 39.607 4.83 62.792 14.49 23.185 9.66 41.54 21.253 55.064 34.778l385.45 385.449c13.524 13.525 20.286 29.625 20.286 48.302 0 19.32-6.762 35.743-20.287 49.268L739.02 797.98c-14.169 13.525-30.591 20.287-49.268 20.287-12.88 0-23.507-2.576-31.88-7.728-8.372-5.153-17.71-13.203-28.014-24.151l253.101-253.102c13.525-13.525 20.287-29.947 20.287-49.268 0-18.677-6.762-34.777-20.287-48.302L497.51 50.267c-13.524-13.524-31.879-25.116-55.064-34.776C419.26 5.83 398.33 1 379.653 1z" fill-rule="nonzero"/></svg>